<svg data-v-0dd9719b="" version="1.0" xmlns="http://www.w3.org/2000/svg" xmlns:xlink="http://www.w3.org/1999/xlink" width="100%" height="100%" viewBox="0 0 340.000000 250.000000" preserveAspectRatio="xMidYMid meet" color-interpolation-filters="sRGB" style="margin: auto;"> <rect data-v-0dd9719b="" x="0" y="0" width="100%" height="100%" fill="#fff" fill-opacity="1" class="background"></rect> <rect data-v-0dd9719b="" x="0" y="0" width="100%" height="100%" fill="url(#watermark)" fill-opacity="1" class="watermarklayer"></rect> <g data-v-0dd9719b="" fill="#56d38e" class="icon-text-wrapper icon-svg-group iconsvg" transform="translate(48.209999084472656,94.98258781433105)"><g class="iconsvg-imagesvg" transform="translate(0,0)"><g><rect fill="#56d38e" fill-opacity="0" stroke-width="2" x="0" y="0" width="60" height="60.034820195713515" class="image-rect"></rect> <svg x="0" y="0" width="60" height="60.034820195713515" filtersec="colorsb8853663150" class="image-svg-svg primary" style="overflow: visible;"><svg xmlns="http://www.w3.org/2000/svg" viewBox="-0.00040793418884277344 -0.00037360191345214844 172.19091796875 172.29153442382812"><title>资源 61</title><g><g><path d="M.18 114.75c17.62 0 35.25.13 52.87 0 3.37 0 4.52.65 4.47 4.3-.22 16-.12 32.05-.06 48.08 0 1.36-.66 2.92.66 4.1-.82 1.64-2.34.89-3.52.89-17 .06-33.93 0-50.9.05-2.09 0-3.73.2-3.7-3 .19-18.12.15-36.27.18-54.42z" fill="#56d38e"></path><path d="M57.44 57.26L.2 57.41C.16 39.25.15 21.08 0 2.92 0 .61.79 0 3 0c17.11.1 34.23.14 51.34 0 2.93 0 3.12 1.26 3.12 3.56-.06 17.9-.02 35.8-.02 53.7z" fill="#55a7fc"></path><path d="M172 57.39l-57.22-.13c0-17.91.06-35.81-.06-53.71 0-2.79.73-3.57 3.53-3.55 16.85.13 33.7.09 50.56 0 2.08 0 3.41 0 3.38 2.85-.19 18.21-.19 36.38-.19 54.54z" fill="#feaf3e"></path><path d="M114.74 115.49c1.21-1.24 2.75-.64 4.13-.64q26.58-.12 53.16-.14c0 18.15 0 36.29.13 54.43 0 2.16-.55 3-2.88 3-17.22-.08-34.45-.11-51.68 0-3.22 0-2.83-1.84-2.83-3.84q0-26.39-.03-52.81z" fill="#8e7ee4"></path><path d="M172 57.39l-57.22-.13H57.44L.2 57.41v57.34c17.62 0 35.25.13 52.87 0 3.37 0 4.52.65 4.47 4.3-.22 16-.12 32.05-.06 48.08 0 1.36-.66 2.92.66 4.1 5.75-5.65 11.54-11.27 17.25-17C84 145.69 92.47 137 101.16 128.5c4.48-4.38 8.24-9.52 13.58-13 1.21-1.24 2.75-.64 4.13-.64q26.58-.12 53.16-.14-.03-28.66-.03-57.33zM28.35 101.1A14.48 14.48 0 0 1 14.4 86.25c.12-8.43 5.68-13.74 14.53-13.73 8.61 0 14.2 5.57 14.16 14.09-.09 8-6.71 14.83-14.74 14.49zm57.39 0a14.48 14.48 0 0 1-14-14.81c.1-8.72 5.73-13.83 15.28-13.77 7.85 0 13.44 5.91 13.41 14s-6.65 14.89-14.69 14.58zm57.19 0a14.39 14.39 0 0 1-13.82-14.56c0-8.66 5.58-14 14.63-14 8.39 0 14 5.53 14 13.81s-6.63 15.2-14.81 14.74z" fill="#1a3055"></path></g></g></svg></svg> <!----></g></g> <g transform="translate(67,20.667412757873535)"><g data-gra="path-name" fill-rule="" class="tp-name iconsvg-namesvg"><g transform="scale(1)"><g><path d="M16.4-16.99L16.4 0 11.79 0 11.79-6.93 6.45-6.93 6.45 0 1.84 0 1.84-16.99 6.45-16.99 6.45-10.69 11.79-10.69 11.79-16.99 16.4-16.99ZM32.38-6.61L32.38-6.61Q32.38-3.38 30.65-1.57 28.91 0.23 25.78 0.23L25.78 0.23Q22.78 0.23 21.01-1.62 19.24-3.46 19.24-6.61L19.24-6.61Q19.24-9.83 20.97-11.62 22.71-13.4 25.85-13.4L25.85-13.4Q27.79-13.4 29.28-12.58 30.77-11.75 31.57-10.21 32.38-8.67 32.38-6.61ZM23.85-6.61L23.85-6.61Q23.85-4.92 24.3-4.03 24.76-3.14 25.83-3.14L25.83-3.14Q26.88-3.14 27.32-4.03 27.76-4.92 27.76-6.61L27.76-6.61Q27.76-8.3 27.31-9.16 26.87-10.02 25.8-10.02L25.8-10.02Q24.76-10.02 24.3-9.17 23.85-8.31 23.85-6.61ZM42.93-13.4L42.93-13.4Q43.52-13.4 44.05-13.31L44.05-13.31 44.31-13.26 43.9-8.97Q43.34-9.11 42.36-9.11L42.36-9.11Q40.87-9.11 40.19-8.43 39.52-7.75 39.52-6.47L39.52-6.47 39.52 0 34.97 0 34.97-13.17 38.36-13.17 39.07-11.07 39.29-11.07Q39.86-12.11 40.87-12.76 41.89-13.4 42.93-13.4ZM50.71-13.17L50.71 0 46.17 0 46.17-13.17 50.71-13.17ZM46.05-16.45L46.05-16.45Q46.05-17.47 46.62-17.97 47.19-18.47 48.46-18.47L48.46-18.47Q49.72-18.47 50.31-17.96 50.89-17.45 50.89-16.45L50.89-16.45Q50.89-14.45 48.46-14.45L48.46-14.45Q46.05-14.45 46.05-16.45ZM63.79-3.48L63.79 0 52.89 0 52.89-2.59 58.34-9.69 53.2-9.69 53.2-13.17 63.53-13.17 63.53-10.36 58.31-3.48 63.79-3.48ZM78.53-6.61L78.53-6.61Q78.53-3.38 76.79-1.57 75.05 0.23 71.93 0.23L71.93 0.23Q68.93 0.23 67.15-1.62 65.38-3.46 65.38-6.61L65.38-6.61Q65.38-9.83 67.12-11.62 68.86-13.4 72-13.4L72-13.4Q73.94-13.4 75.42-12.58 76.91-11.75 77.72-10.21 78.53-8.67 78.53-6.61ZM70-6.61L70-6.61Q70-4.92 70.45-4.03 70.9-3.14 71.97-3.14L71.97-3.14Q73.03-3.14 73.47-4.03 73.9-4.92 73.9-6.61L73.9-6.61Q73.9-8.3 73.46-9.16 73.02-10.02 71.95-10.02L71.95-10.02Q70.9-10.02 70.45-9.17 70-8.31 70-6.61ZM93.98 0L89.43 0 89.43-7.18Q89.43-8.5 89.05-9.17 88.67-9.83 87.84-9.83L87.84-9.83Q86.69-9.83 86.18-8.92 85.66-8 85.66-5.77L85.66-5.77 85.66 0 81.12 0 81.12-13.17 84.55-13.17 85.12-11.54 85.39-11.54Q85.97-12.47 87-12.94 88.02-13.4 89.36-13.4L89.36-13.4Q91.55-13.4 92.76-12.13 93.98-10.87 93.98-8.57L93.98-8.57 93.98 0ZM110.34-6.4L110.34-9.95 117.68-9.95 117.68-0.79Q114.69 0.23 111.11 0.23L111.11 0.23Q107.18 0.23 105.03-2.05 102.89-4.32 102.89-8.54L102.89-8.54Q102.89-12.66 105.24-14.95 107.59-17.24 111.82-17.24L111.82-17.24Q113.42-17.24 114.85-16.94 116.27-16.63 117.33-16.17L117.33-16.17 115.87-12.56Q114.04-13.47 111.84-13.47L111.84-13.47Q109.83-13.47 108.73-12.16 107.63-10.86 107.63-8.43L107.63-8.43Q107.63-6.04 108.63-4.79 109.62-3.55 111.49-3.55L111.49-3.55Q112.51-3.55 113.37-3.74L113.37-3.74 113.37-6.4 110.34-6.4ZM125.42-18.09L125.42 0 120.87 0 120.87-18.09 125.42-18.09ZM141.14-6.61L141.14-6.61Q141.14-3.38 139.41-1.57 137.67 0.23 134.54 0.23L134.54 0.23Q131.54 0.23 129.77-1.62 128-3.46 128-6.61L128-6.61Q128-9.83 129.73-11.62 131.47-13.4 134.61-13.4L134.61-13.4Q136.55-13.4 138.04-12.58 139.53-11.75 140.34-10.21 141.14-8.67 141.14-6.61ZM132.61-6.61L132.61-6.61Q132.61-4.92 133.06-4.03 133.52-3.14 134.59-3.14L134.59-3.14Q135.65-3.14 136.08-4.03 136.52-4.92 136.52-6.61L136.52-6.61Q136.52-8.3 136.08-9.16 135.63-10.02 134.56-10.02L134.56-10.02Q133.52-10.02 133.06-9.17 132.61-8.31 132.61-6.61ZM151.78-13.4L151.78-13.4Q153.93-13.4 155.19-11.6 156.45-9.8 156.45-6.61L156.45-6.61Q156.45-3.41 155.18-1.59 153.91 0.23 151.64 0.23L151.64 0.23Q150.91 0.23 150.34 0.08 149.77-0.08 149.32-0.36 148.87-0.64 148.28-1.29L148.28-1.29 148-1.29 147.28 0 143.73 0 143.73-18.09 148.28-18.09 148.28-13.99Q148.28-13.26 148.12-11.47L148.12-11.47 148.28-11.47Q148.94-12.5 149.81-12.95 150.67-13.4 151.78-13.4ZM150.12-9.83L150.12-9.83Q149.16-9.83 148.72-9.17 148.28-8.51 148.28-7.09L148.28-7.09 148.28-6.45Q148.28-4.84 148.72-4.13 149.16-3.43 150.16-3.43L150.16-3.43Q150.96-3.43 151.39-4.25 151.82-5.07 151.82-6.66L151.82-6.66Q151.82-9.83 150.12-9.83ZM170.78 0L167.63 0 166.76-1.74 166.67-1.74Q165.75-0.6 164.8-0.19 163.84 0.23 162.33 0.23L162.33 0.23Q160.47 0.23 159.4-0.88 158.33-2 158.33-4.02L158.33-4.02Q158.33-6.13 159.8-7.15 161.26-8.18 164.04-8.31L164.04-8.31 166.24-8.38 166.24-8.57Q166.24-10.19 164.63-10.19L164.63-10.19Q163.19-10.19 160.97-9.22L160.97-9.22 159.66-12.22Q161.96-13.4 165.47-13.4L165.47-13.4Q168-13.4 169.39-12.15 170.78-10.89 170.78-8.64L170.78-8.64 170.78 0ZM164.26-2.98L164.26-2.98Q165.09-2.98 165.67-3.5 166.26-4.02 166.26-4.86L166.26-4.86 166.26-5.88 165.22-5.83Q162.97-5.75 162.97-4.18L162.97-4.18Q162.97-2.98 164.26-2.98ZM178.42-18.09L178.42 0 173.87 0 173.87-18.09 178.42-18.09Z" transform="translate(-1.840000033378601, 18.469999313354492)"></path></g> <!----> <!----> <!----> <!----> <!----> <!----> <!----></g></g> <!----></g></g><defs v-gra="od"></defs></svg>